<?xml version="1.0" standalone="no"?>
<!DOCTYPE svg PUBLIC "-//W3C//DTD SVG 20010904//EN"
 "http://www.w3.org/TR/2001/REC-SVG-20010904/DTD/svg10.dtd">
<svg version="1.0" xmlns="http://www.w3.org/2000/svg"
 width="512.000000pt" height="512.000000pt" viewBox="0 0 512.000000 512.000000"
 preserveAspectRatio="xMidYMid meet">
<metadata>
Created by potrace 1.11, written by Peter Selinger 2001-2013
</metadata>
<g transform="translate(0.000000,512.000000) scale(0.100000,-0.100000)"
fill="#000000" stroke="none">
<path d="M0 2560 l0 -2560 2560 0 2560 0 0 2560 0 2560 -2560 0 -2560 0 0
-2560z m2716 1819 c493 -68 885 -455 959 -946 19 -124 19 -212 0 -336 -82
-547 -557 -957 -1109 -957 -748 0 -1286 716 -1080 1438 152 531 683 877 1230
801z m-1692 -2364 c244 -40 459 -102 641 -185 33 -15 84 -38 113 -50 28 -12
52 -26 52 -31 0 -5 3 -8 8 -8 18 3 30 -2 52 -23 14 -13 26 -21 28 -19 8 9 102
-51 96 -61 -4 -7 -2 -8 4 -4 13 8 33 -4 162 -97 52 -38 94 -73 92 -78 -1 -5 2
-8 7 -7 11 3 54 -29 125 -93 28 -25 66 -59 84 -74 18 -16 30 -35 27 -42 -3 -8
0 -11 6 -8 6 4 19 -1 29 -10 18 -17 23 -14 110 66 50 46 96 83 101 81 6 -1 8
2 4 7 -3 6 7 18 22 28 15 10 42 30 58 45 146 130 615 402 663 383 9 -3 13 -3
9 1 -4 4 4 13 17 19 26 14 125 49 141 51 6 0 24 7 40 14 53 22 287 77 401 94
232 33 468 30 642 -9 60 -14 75 -21 86 -43 17 -33 73 -260 89 -361 11 -67 15
-75 39 -83 21 -7 29 -18 33 -44 3 -19 8 -50 11 -70 5 -31 3 -35 -13 -30 -207
60 -287 70 -568 70 -257 1 -297 -3 -537 -50 -417 -80 -845 -269 -1064 -468
-57 -52 -63 -61 -79 -126 l-17 -70 -168 0 -168 0 -17 70 c-16 66 -22 75 -79
126 -179 160 -479 311 -813 408 -479 139 -993 154 -1356 40 -16 -5 -18 -1 -13
30 3 20 8 51 11 70 4 27 12 37 35 45 24 8 30 16 30 39 0 57 82 395 102 419 11
14 127 42 223 53 97 12 391 3 499 -15z"/>
<path d="M2425 4273 c-128 -18 -284 -76 -405 -151 -104 -64 -261 -224 -324
-330 -350 -590 -42 -1339 622 -1513 110 -29 301 -36 420 -15 661 115 1032 837
742 1441 -143 297 -433 513 -760 565 -63 9 -233 11 -295 3z m-282 -954 c78
-40 127 -135 127 -248 0 -162 -97 -279 -215 -257 -129 25 -202 237 -132 389
26 57 65 102 102 118 29 12 93 11 118 -2z m965 -3 c75 -39 123 -130 123 -234
1 -110 -24 -176 -85 -229 -62 -55 -140 -55 -202 -1 -107 94 -117 299 -22 419
42 52 131 74 186 45z"/>
<path d="M635 1913 c-27 -1 -94 -8 -147 -14 -95 -11 -97 -12 -103 -40 -4 -16
-12 -29 -18 -30 -7 -1 -1 -4 13 -8 14 -4 45 -3 69 2 24 5 148 7 275 4 242 -5
352 -19 557 -71 90 -23 314 -104 307 -111 -2 -2 -43 7 -91 21 -271 76 -544
114 -820 114 -163 0 -311 -10 -322 -22 -2 -2 -5 -14 -7 -28 -2 -20 1 -25 17
-23 83 10 399 14 480 7 100 -9 100 -9 -110 -15 -201 -7 -378 -28 -397 -47 -5
-5 -12 -28 -14 -52 -5 -37 -3 -41 13 -37 139 40 510 44 717 9 466 -80 933
-268 1245 -502 l87 -66 53 24 c73 33 185 34 261 1 34 -15 57 -19 66 -13 7 5
53 38 102 73 320 228 765 405 1218 483 164 28 519 31 649 5 72 -14 115 -10 86
7 -6 4 -11 20 -11 36 0 19 -6 31 -17 34 -54 17 -241 37 -398 44 l-180 7 105 6
c118 7 363 1 427 -11 50 -9 52 -7 45 26 -8 43 -32 47 -287 52 -204 3 -265 1
-405 -17 -167 -22 -374 -64 -490 -100 -35 -11 -66 -19 -67 -17 -12 12 262 110
284 102 8 -3 12 -2 9 3 -6 8 74 27 239 57 107 19 492 30 608 17 43 -5 80 -7
82 -4 2 4 -3 20 -10 37 -12 29 -17 31 -96 42 -103 15 -375 16 -489 2 -196 -24
-463 -98 -648 -182 -35 -15 -69 -25 -74 -21 -7 3 -8 1 -4 -5 4 -7 1 -12 -6
-12 -8 0 -79 -36 -158 -81 -80 -45 -150 -81 -157 -82 -7 0 -10 -4 -7 -9 3 -4
1 -8 -4 -8 -13 0 -226 -144 -305 -208 -86 -68 -219 -182 -228 -195 -4 -6 -44
23 -90 64 -46 41 -115 99 -154 129 -38 30 -71 58 -73 62 -2 5 -9 8 -16 8 -6 0
-26 13 -44 30 -18 16 -34 29 -35 28 -7 -6 -105 68 -100 75 3 6 1 7 -5 3 -6 -4
-55 19 -109 51 -352 210 -719 333 -1081 363 -69 5 -139 9 -156 8 -17 -1 -53
-3 -81 -5z"/>
</g>
</svg>
